<?xml version="1.0" standalone="no"?>
<!DOCTYPE svg PUBLIC "-//W3C//DTD SVG 20010904//EN"
 "http://www.w3.org/TR/2001/REC-SVG-20010904/DTD/svg10.dtd">
<svg version="1.0" xmlns="http://www.w3.org/2000/svg"
 width="122.000000pt" height="96.000000pt" viewBox="0 0 122.000000 96.000000"
 preserveAspectRatio="xMidYMid meet">

<g transform="translate(0.000000,96.000000) scale(0.100000,-0.100000)"
fill="#000000" stroke="none">
<path d="M335 920 c-8 -12 -10 -7 93 -154 76 -109 83 -122 72 -145 -29 -65
-134 -221 -179 -268 -30 -31 -55 -68 -62 -92 -7 -23 -18 -41 -27 -41 -39 0
-112 -74 -112 -113 0 -29 38 -20 55 13 22 42 75 68 75 36 0 -7 9 -25 21 -40
16 -20 29 -26 58 -26 40 0 63 18 75 57 9 30 -19 83 -44 83 -27 0 -35 -18 -16
-39 21 -23 20 -38 -3 -50 -20 -11 -32 -3 -44 31 -11 32 21 112 60 149 32 31
245 179 257 179 2 0 38 -55 81 -122 87 -136 108 -163 123 -154 6 3 83 147 173
319 89 171 168 322 176 335 31 51 25 52 -267 52 -263 0 -270 0 -270 -20 0 -19
7 -20 195 -20 174 0 230 -7 178 -23 -10 -3 -115 -48 -234 -100 l-217 -94 -67
95 c-37 53 -69 102 -72 109 -4 10 8 13 46 13 44 0 51 3 51 20 0 18 -7 20 -84
20 -47 0 -88 -4 -91 -10z m675 -241 c-39 -74 -99 -189 -133 -256 -34 -68 -65
-123 -68 -123 -9 0 -144 213 -144 227 0 6 77 64 170 129 94 64 186 130 205
145 19 15 36 24 38 20 1 -5 -29 -69 -68 -142z m-95 92 c-38 -34 -435 -304
-440 -299 -2 2 16 37 40 78 l45 74 177 77 c189 83 192 84 178 70z"/>
</g>
</svg>
